<mxfile host="app.diagrams.net" modified="2024-05-29T06:15:55.217Z" agent="Mozilla/5.0 (Windows NT 10.0; Win64; x64) AppleWebKit/537.36 (KHTML, like Gecko) Chrome/125.0.0.0 Safari/537.36" etag="8nkfvW3O8Z_MdeUyumFa" version="24.3.1" type="device">
  <diagram id="R2lEEEUBdFMjLlhIrx00" name="Page-1">
    <mxGraphModel dx="3366" dy="1131" grid="1" gridSize="10" guides="1" tooltips="1" connect="1" arrows="1" fold="1" page="1" pageScale="1" pageWidth="850" pageHeight="1100" math="0" shadow="0" extFonts="Permanent Marker^https://fonts.googleapis.com/css?family=Permanent+Marker">
      <root>
        <mxCell id="0" />
        <mxCell id="1" parent="0" />
        <mxCell id="IeWaTaDR5QfWAJEZIo10-1" value="Обработка заявки для поступления в лагерь" style="rounded=0;whiteSpace=wrap;html=1;" vertex="1" parent="1">
          <mxGeometry x="220" y="525" width="120" height="60" as="geometry" />
        </mxCell>
        <mxCell id="IeWaTaDR5QfWAJEZIo10-2" value="" style="endArrow=classic;html=1;rounded=0;exitX=1;exitY=0.5;exitDx=0;exitDy=0;" edge="1" parent="1" source="IeWaTaDR5QfWAJEZIo10-1">
          <mxGeometry width="50" height="50" relative="1" as="geometry">
            <mxPoint x="390" y="575" as="sourcePoint" />
            <mxPoint x="480" y="555" as="targetPoint" />
          </mxGeometry>
        </mxCell>
        <mxCell id="IeWaTaDR5QfWAJEZIo10-3" value="Подтверждение&amp;nbsp;&lt;div&gt;заявки&lt;/div&gt;" style="edgeLabel;html=1;align=center;verticalAlign=middle;resizable=0;points=[];" vertex="1" connectable="0" parent="IeWaTaDR5QfWAJEZIo10-2">
          <mxGeometry x="-0.12" y="-1" relative="1" as="geometry">
            <mxPoint x="128" y="-1" as="offset" />
          </mxGeometry>
        </mxCell>
        <mxCell id="IeWaTaDR5QfWAJEZIo10-4" value="" style="endArrow=classic;html=1;rounded=0;" edge="1" parent="1">
          <mxGeometry width="50" height="50" relative="1" as="geometry">
            <mxPoint x="330" y="665" as="sourcePoint" />
            <mxPoint x="330" y="585" as="targetPoint" />
          </mxGeometry>
        </mxCell>
        <mxCell id="IeWaTaDR5QfWAJEZIo10-5" value="" style="endArrow=classic;html=1;rounded=0;" edge="1" parent="1">
          <mxGeometry width="50" height="50" relative="1" as="geometry">
            <mxPoint x="234" y="665" as="sourcePoint" />
            <mxPoint x="234" y="585" as="targetPoint" />
          </mxGeometry>
        </mxCell>
        <mxCell id="IeWaTaDR5QfWAJEZIo10-6" value="" style="endArrow=classic;html=1;rounded=0;entryX=0;entryY=0.25;entryDx=0;entryDy=0;" edge="1" parent="1" target="IeWaTaDR5QfWAJEZIo10-1">
          <mxGeometry width="50" height="50" relative="1" as="geometry">
            <mxPoint x="90" y="540" as="sourcePoint" />
            <mxPoint x="190" y="525" as="targetPoint" />
          </mxGeometry>
        </mxCell>
        <mxCell id="IeWaTaDR5QfWAJEZIo10-7" value="Подача заявки&amp;nbsp;&lt;div&gt;для поступления&lt;/div&gt;" style="edgeLabel;html=1;align=center;verticalAlign=middle;resizable=0;points=[];" vertex="1" connectable="0" parent="IeWaTaDR5QfWAJEZIo10-6">
          <mxGeometry x="-0.1372" y="-2" relative="1" as="geometry">
            <mxPoint x="-106" y="-2" as="offset" />
          </mxGeometry>
        </mxCell>
        <mxCell id="IeWaTaDR5QfWAJEZIo10-8" value="" style="endArrow=classic;html=1;rounded=0;entryX=0;entryY=0.25;entryDx=0;entryDy=0;" edge="1" parent="1">
          <mxGeometry width="50" height="50" relative="1" as="geometry">
            <mxPoint x="90" y="565" as="sourcePoint" />
            <mxPoint x="220" y="565" as="targetPoint" />
          </mxGeometry>
        </mxCell>
        <mxCell id="IeWaTaDR5QfWAJEZIo10-9" value="Контактные&amp;nbsp;&lt;div&gt;данные&lt;/div&gt;" style="edgeLabel;html=1;align=center;verticalAlign=middle;resizable=0;points=[];" vertex="1" connectable="0" parent="IeWaTaDR5QfWAJEZIo10-8">
          <mxGeometry x="-0.0131" relative="1" as="geometry">
            <mxPoint x="-104" y="5" as="offset" />
          </mxGeometry>
        </mxCell>
        <mxCell id="IeWaTaDR5QfWAJEZIo10-10" value="" style="endArrow=classic;html=1;rounded=0;entryX=0.5;entryY=0;entryDx=0;entryDy=0;" edge="1" parent="1">
          <mxGeometry width="50" height="50" relative="1" as="geometry">
            <mxPoint x="229.5" y="435" as="sourcePoint" />
            <mxPoint x="229.5" y="525" as="targetPoint" />
          </mxGeometry>
        </mxCell>
        <mxCell id="IeWaTaDR5QfWAJEZIo10-11" value="Администратор сайта" style="text;html=1;align=center;verticalAlign=middle;resizable=0;points=[];autosize=1;strokeColor=none;fillColor=none;" vertex="1" parent="1">
          <mxGeometry x="150" y="665" width="140" height="30" as="geometry" />
        </mxCell>
        <mxCell id="IeWaTaDR5QfWAJEZIo10-12" value="Администратор лагеря" style="text;html=1;align=center;verticalAlign=middle;resizable=0;points=[];autosize=1;strokeColor=none;fillColor=none;" vertex="1" parent="1">
          <mxGeometry x="290" y="665" width="150" height="30" as="geometry" />
        </mxCell>
        <mxCell id="IeWaTaDR5QfWAJEZIo10-13" value="Данные о наличии&lt;div&gt;&amp;nbsp;свободных местах&lt;/div&gt;" style="text;html=1;align=center;verticalAlign=middle;resizable=0;points=[];autosize=1;strokeColor=none;fillColor=none;" vertex="1" parent="1">
          <mxGeometry x="160" y="400" width="130" height="40" as="geometry" />
        </mxCell>
        <mxCell id="IeWaTaDR5QfWAJEZIo10-14" value="" style="endArrow=classic;html=1;rounded=0;entryX=0.75;entryY=0;entryDx=0;entryDy=0;" edge="1" parent="1">
          <mxGeometry width="50" height="50" relative="1" as="geometry">
            <mxPoint x="330" y="435" as="sourcePoint" />
            <mxPoint x="330" y="525" as="targetPoint" />
          </mxGeometry>
        </mxCell>
        <mxCell id="IeWaTaDR5QfWAJEZIo10-15" value="Соглашение с&amp;nbsp;&lt;div&gt;уставом лагеря&lt;/div&gt;" style="text;html=1;align=center;verticalAlign=middle;resizable=0;points=[];autosize=1;strokeColor=none;fillColor=none;" vertex="1" parent="1">
          <mxGeometry x="280" y="397" width="110" height="40" as="geometry" />
        </mxCell>
        <mxCell id="IeWaTaDR5QfWAJEZIo10-16" style="edgeStyle=orthogonalEdgeStyle;rounded=0;orthogonalLoop=1;jettySize=auto;html=1;entryX=0;entryY=0.5;entryDx=0;entryDy=0;" edge="1" parent="1" source="IeWaTaDR5QfWAJEZIo10-18" target="IeWaTaDR5QfWAJEZIo10-29">
          <mxGeometry relative="1" as="geometry" />
        </mxCell>
        <mxCell id="IeWaTaDR5QfWAJEZIo10-17" value="Заявка отправителя" style="edgeLabel;html=1;align=center;verticalAlign=middle;resizable=0;points=[];" vertex="1" connectable="0" parent="IeWaTaDR5QfWAJEZIo10-16">
          <mxGeometry x="-0.0085" y="2" relative="1" as="geometry">
            <mxPoint as="offset" />
          </mxGeometry>
        </mxCell>
        <mxCell id="IeWaTaDR5QfWAJEZIo10-18" value="Обработка информации о&amp;nbsp;&lt;span style=&quot;font-size: 11px; text-wrap: nowrap; background-color: rgb(255, 255, 255);&quot;&gt;поступающем&lt;/span&gt;" style="rounded=0;whiteSpace=wrap;html=1;" vertex="1" parent="1">
          <mxGeometry x="1040" y="446.95" width="120" height="60" as="geometry" />
        </mxCell>
        <mxCell id="IeWaTaDR5QfWAJEZIo10-19" value="" style="endArrow=classic;html=1;rounded=0;entryX=0;entryY=0.25;entryDx=0;entryDy=0;" edge="1" parent="1" target="IeWaTaDR5QfWAJEZIo10-18">
          <mxGeometry width="50" height="50" relative="1" as="geometry">
            <mxPoint x="910" y="461.95" as="sourcePoint" />
            <mxPoint x="970" y="416.95" as="targetPoint" />
          </mxGeometry>
        </mxCell>
        <mxCell id="IeWaTaDR5QfWAJEZIo10-20" value="Подача заявки&amp;nbsp;&lt;div&gt;для поступления&lt;/div&gt;" style="edgeLabel;html=1;align=center;verticalAlign=middle;resizable=0;points=[];" vertex="1" connectable="0" parent="IeWaTaDR5QfWAJEZIo10-19">
          <mxGeometry x="-0.4" y="4" relative="1" as="geometry">
            <mxPoint x="-99" y="4" as="offset" />
          </mxGeometry>
        </mxCell>
        <mxCell id="IeWaTaDR5QfWAJEZIo10-21" value="" style="endArrow=classic;html=1;rounded=0;entryX=0;entryY=0.75;entryDx=0;entryDy=0;" edge="1" parent="1" target="IeWaTaDR5QfWAJEZIo10-18">
          <mxGeometry width="50" height="50" relative="1" as="geometry">
            <mxPoint x="910" y="491.95" as="sourcePoint" />
            <mxPoint x="970" y="476.95" as="targetPoint" />
          </mxGeometry>
        </mxCell>
        <mxCell id="IeWaTaDR5QfWAJEZIo10-22" value="Контактные данные" style="edgeLabel;html=1;align=center;verticalAlign=middle;resizable=0;points=[];" vertex="1" connectable="0" parent="IeWaTaDR5QfWAJEZIo10-21">
          <mxGeometry x="-0.3692" y="1" relative="1" as="geometry">
            <mxPoint x="-101" as="offset" />
          </mxGeometry>
        </mxCell>
        <mxCell id="IeWaTaDR5QfWAJEZIo10-23" value="" style="endArrow=classic;html=1;rounded=0;entryX=0.25;entryY=0;entryDx=0;entryDy=0;" edge="1" parent="1" target="IeWaTaDR5QfWAJEZIo10-18">
          <mxGeometry width="50" height="50" relative="1" as="geometry">
            <mxPoint x="1070" y="366.95" as="sourcePoint" />
            <mxPoint x="1120" y="316.95" as="targetPoint" />
          </mxGeometry>
        </mxCell>
        <mxCell id="IeWaTaDR5QfWAJEZIo10-122" value="&lt;span style=&quot;font-size: 12px; background-color: rgb(251, 251, 251);&quot;&gt;Соглашение с&amp;nbsp;&lt;/span&gt;&lt;div style=&quot;font-size: 12px; background-color: rgb(251, 251, 251);&quot;&gt;уставом лагеря&lt;/div&gt;" style="edgeLabel;html=1;align=center;verticalAlign=middle;resizable=0;points=[];" vertex="1" connectable="0" parent="IeWaTaDR5QfWAJEZIo10-23">
          <mxGeometry x="-0.747" y="-4" relative="1" as="geometry">
            <mxPoint x="4" y="-12" as="offset" />
          </mxGeometry>
        </mxCell>
        <mxCell id="IeWaTaDR5QfWAJEZIo10-24" style="edgeStyle=orthogonalEdgeStyle;rounded=0;orthogonalLoop=1;jettySize=auto;html=1;entryX=0.25;entryY=0;entryDx=0;entryDy=0;" edge="1" parent="1" target="IeWaTaDR5QfWAJEZIo10-34">
          <mxGeometry relative="1" as="geometry">
            <mxPoint x="1120" y="349.997619047619" as="sourcePoint" />
          </mxGeometry>
        </mxCell>
        <mxCell id="IeWaTaDR5QfWAJEZIo10-25" style="edgeStyle=orthogonalEdgeStyle;rounded=0;orthogonalLoop=1;jettySize=auto;html=1;entryX=0.25;entryY=0;entryDx=0;entryDy=0;" edge="1" parent="1" target="IeWaTaDR5QfWAJEZIo10-29">
          <mxGeometry relative="1" as="geometry">
            <mxPoint x="1120" y="349.997619047619" as="sourcePoint" />
          </mxGeometry>
        </mxCell>
        <mxCell id="IeWaTaDR5QfWAJEZIo10-27" style="edgeStyle=orthogonalEdgeStyle;rounded=0;orthogonalLoop=1;jettySize=auto;html=1;entryX=0;entryY=0.5;entryDx=0;entryDy=0;" edge="1" parent="1" source="IeWaTaDR5QfWAJEZIo10-29" target="IeWaTaDR5QfWAJEZIo10-34">
          <mxGeometry relative="1" as="geometry" />
        </mxCell>
        <mxCell id="IeWaTaDR5QfWAJEZIo10-28" value="Одобренная заявка" style="edgeLabel;html=1;align=center;verticalAlign=middle;resizable=0;points=[];" vertex="1" connectable="0" parent="IeWaTaDR5QfWAJEZIo10-27">
          <mxGeometry x="0.0108" y="1" relative="1" as="geometry">
            <mxPoint as="offset" />
          </mxGeometry>
        </mxCell>
        <mxCell id="IeWaTaDR5QfWAJEZIo10-29" value="Обработка о наличии свободных мест в лагере" style="rounded=0;whiteSpace=wrap;html=1;" vertex="1" parent="1">
          <mxGeometry x="1260" y="556.95" width="120" height="60" as="geometry" />
        </mxCell>
        <mxCell id="IeWaTaDR5QfWAJEZIo10-30" value="" style="endArrow=classic;html=1;rounded=0;entryX=0.25;entryY=1;entryDx=0;entryDy=0;" edge="1" parent="1" target="IeWaTaDR5QfWAJEZIo10-18">
          <mxGeometry width="50" height="50" relative="1" as="geometry">
            <mxPoint x="1070" y="576.95" as="sourcePoint" />
            <mxPoint x="1110" y="526.95" as="targetPoint" />
          </mxGeometry>
        </mxCell>
        <mxCell id="IeWaTaDR5QfWAJEZIo10-31" value="Администратор сайта" style="text;html=1;align=center;verticalAlign=middle;resizable=0;points=[];autosize=1;strokeColor=none;fillColor=none;" vertex="1" parent="1">
          <mxGeometry x="1000" y="571.95" width="140" height="30" as="geometry" />
        </mxCell>
        <mxCell id="IeWaTaDR5QfWAJEZIo10-34" value="Подтверждение заявки для поступления&amp;nbsp;" style="rounded=0;whiteSpace=wrap;html=1;" vertex="1" parent="1">
          <mxGeometry x="1480" y="634.95" width="120" height="60" as="geometry" />
        </mxCell>
        <mxCell id="IeWaTaDR5QfWAJEZIo10-37" value="" style="endArrow=classic;html=1;rounded=0;exitX=1;exitY=0.5;exitDx=0;exitDy=0;" edge="1" parent="1" source="IeWaTaDR5QfWAJEZIo10-34">
          <mxGeometry width="50" height="50" relative="1" as="geometry">
            <mxPoint x="1700" y="686.95" as="sourcePoint" />
            <mxPoint x="1730" y="664.95" as="targetPoint" />
          </mxGeometry>
        </mxCell>
        <mxCell id="IeWaTaDR5QfWAJEZIo10-38" value="Бронирование места" style="edgeLabel;html=1;align=center;verticalAlign=middle;resizable=0;points=[];" vertex="1" connectable="0" parent="IeWaTaDR5QfWAJEZIo10-37">
          <mxGeometry x="-0.2143" y="1" relative="1" as="geometry">
            <mxPoint x="139" y="1" as="offset" />
          </mxGeometry>
        </mxCell>
        <mxCell id="IeWaTaDR5QfWAJEZIo10-39" style="edgeStyle=orthogonalEdgeStyle;rounded=0;orthogonalLoop=1;jettySize=auto;html=1;entryX=0.75;entryY=0;entryDx=0;entryDy=0;" edge="1" parent="1" source="IeWaTaDR5QfWAJEZIo10-40" target="IeWaTaDR5QfWAJEZIo10-29">
          <mxGeometry relative="1" as="geometry" />
        </mxCell>
        <mxCell id="IeWaTaDR5QfWAJEZIo10-40" value="Данные о наличии&lt;div&gt;&amp;nbsp;свободных местах&lt;/div&gt;" style="text;html=1;align=center;verticalAlign=middle;resizable=0;points=[];autosize=1;strokeColor=none;fillColor=none;" vertex="1" parent="1">
          <mxGeometry x="1285" y="456.95" width="130" height="40" as="geometry" />
        </mxCell>
        <mxCell id="IeWaTaDR5QfWAJEZIo10-41" style="edgeStyle=orthogonalEdgeStyle;rounded=0;orthogonalLoop=1;jettySize=auto;html=1;entryX=0.25;entryY=1;entryDx=0;entryDy=0;" edge="1" parent="1" source="IeWaTaDR5QfWAJEZIo10-42" target="IeWaTaDR5QfWAJEZIo10-34">
          <mxGeometry relative="1" as="geometry">
            <Array as="points">
              <mxPoint x="1510" y="784.95" />
              <mxPoint x="1510" y="784.95" />
            </Array>
          </mxGeometry>
        </mxCell>
        <mxCell id="IeWaTaDR5QfWAJEZIo10-42" value="Работники лагеря" style="text;html=1;align=center;verticalAlign=middle;resizable=0;points=[];autosize=1;strokeColor=none;fillColor=none;" vertex="1" parent="1">
          <mxGeometry x="1440" y="802.95" width="120" height="30" as="geometry" />
        </mxCell>
        <mxCell id="IeWaTaDR5QfWAJEZIo10-43" value="" style="endArrow=classic;html=1;rounded=0;entryX=0.75;entryY=1;entryDx=0;entryDy=0;exitX=0.505;exitY=-0.037;exitDx=0;exitDy=0;exitPerimeter=0;" edge="1" parent="1" source="IeWaTaDR5QfWAJEZIo10-45">
          <mxGeometry width="50" height="50" relative="1" as="geometry">
            <mxPoint x="1150" y="586.95" as="sourcePoint" />
            <mxPoint x="1150" y="506.95" as="targetPoint" />
          </mxGeometry>
        </mxCell>
        <mxCell id="IeWaTaDR5QfWAJEZIo10-44" style="edgeStyle=orthogonalEdgeStyle;rounded=0;orthogonalLoop=1;jettySize=auto;html=1;entryX=0.75;entryY=1;entryDx=0;entryDy=0;" edge="1" parent="1" source="IeWaTaDR5QfWAJEZIo10-45" target="IeWaTaDR5QfWAJEZIo10-34">
          <mxGeometry relative="1" as="geometry">
            <mxPoint x="1160" y="644.95" as="sourcePoint" />
            <mxPoint x="1505" y="934.95" as="targetPoint" />
            <Array as="points">
              <mxPoint x="1170" y="857.95" />
              <mxPoint x="1570" y="857.95" />
            </Array>
          </mxGeometry>
        </mxCell>
        <mxCell id="IeWaTaDR5QfWAJEZIo10-123" style="edgeStyle=orthogonalEdgeStyle;rounded=0;orthogonalLoop=1;jettySize=auto;html=1;entryX=0.5;entryY=1;entryDx=0;entryDy=0;" edge="1" parent="1" target="IeWaTaDR5QfWAJEZIo10-29">
          <mxGeometry relative="1" as="geometry">
            <mxPoint x="1170" y="624.95" as="sourcePoint" />
            <Array as="points">
              <mxPoint x="1170" y="632.95" />
              <mxPoint x="1170" y="857.95" />
              <mxPoint x="1320" y="857.95" />
            </Array>
          </mxGeometry>
        </mxCell>
        <mxCell id="IeWaTaDR5QfWAJEZIo10-45" value="Администратор лагеря" style="text;html=1;align=center;verticalAlign=middle;resizable=0;points=[];autosize=1;strokeColor=none;fillColor=none;" vertex="1" parent="1">
          <mxGeometry x="1075" y="601.95" width="150" height="30" as="geometry" />
        </mxCell>
      </root>
    </mxGraphModel>
  </diagram>
</mxfile>
